<?xml version="1.0" standalone="no"?>
<!DOCTYPE svg PUBLIC "-//W3C//DTD SVG 20010904//EN"
 "http://www.w3.org/TR/2001/REC-SVG-20010904/DTD/svg10.dtd">
<svg version="1.0" xmlns="http://www.w3.org/2000/svg"
 width="50.000000pt" height="50.000000pt" viewBox="0 0 50.000000 50.000000"
 preserveAspectRatio="xMidYMid meet">

<g transform="translate(0.000000,50.000000) scale(0.100000,-0.100000)"
fill="#000000" stroke="none">
<path d="M228 493 c12 -2 32 -2 45 0 12 2 2 4 -23 4 -25 0 -35 -2 -22 -4z"/>
<path d="M124 464 c-18 -14 -18 -14 6 -3 31 14 36 19 24 19 -6 0 -19 -7 -30
-16z"/>
<path d="M341 476 c2 -2 15 -9 29 -15 24 -11 24 -11 6 3 -16 13 -49 24 -35 12z"/>
<path d="M69 423 c-13 -16 -12 -17 4 -4 9 7 17 15 17 17 0 8 -8 3 -21 -13z"/>
<path d="M292 424 c-18 -8 -38 -25 -44 -39 -6 -13 -15 -22 -21 -18 -6 3 -7 1
-3 -6 6 -9 11 -9 22 0 8 6 14 9 14 5 0 -4 14 1 31 10 31 16 83 16 124 -1 14
-6 10 3 -14 28 -38 40 -57 44 -109 21z"/>
<path d="M410 436 c0 -2 8 -10 18 -17 15 -13 16 -12 3 4 -13 16 -21 21 -21 13z"/>
<path d="M265 298 l-20 -23 21 18 c32 27 38 20 12 -15 -13 -18 -33 -54 -45
-80 -13 -29 -29 -48 -38 -48 -9 0 -15 6 -12 13 2 6 9 11 15 10 5 -1 8 7 5 18
-5 18 -6 19 -19 2 -7 -10 -14 -24 -14 -30 0 -7 -4 -13 -10 -13 -5 0 -7 7 -3
16 4 11 0 15 -13 14 -42 -5 -48 -1 -31 18 10 10 17 24 17 30 0 6 5 14 12 18 7
4 8 3 4 -4 -5 -8 3 -12 23 -12 17 0 31 5 31 10 0 6 -5 10 -11 10 -6 0 -9 7 -5
15 7 20 -28 20 -47 0 -12 -11 -17 -12 -21 -2 -4 8 -5 7 -4 -3 2 -24 -32 -91
-42 -85 -6 3 -10 1 -10 -5 0 -7 7 -10 15 -6 19 7 19 -8 0 -24 -12 -10 -15 -10
-15 0 0 8 -3 11 -6 7 -11 -10 7 -28 19 -19 7 4 38 6 69 4 44 -3 55 -7 51 -18
-4 -10 0 -12 11 -8 9 3 13 10 10 15 -3 5 7 31 22 56 25 43 28 45 35 25 16 -44
59 -22 59 30 0 11 5 18 12 16 20 -7 19 -24 -2 -51 -17 -21 -30 -27 -63 -27
-30 -1 -38 -3 -26 -10 41 -24 109 -17 109 12 0 6 10 25 23 42 33 44 42 60 29
52 -5 -3 -19 5 -29 20 -28 37 -91 44 -118 12z m46 -101 c-8 -8 -14 -7 -23 2
-11 11 -10 13 0 7 7 -4 15 0 19 10 5 12 8 14 11 5 2 -7 -1 -18 -7 -24z m-180
-31 c7 4 10 2 7 -6 -2 -7 -12 -14 -22 -16 -10 -1 -15 0 -12 3 3 4 0 13 -7 22
-10 14 -10 14 5 3 9 -8 22 -10 29 -6z"/>
<path d="M96 293 c2 -7 -1 -13 -6 -13 -14 0 -12 -37 2 -46 7 -5 9 -2 5 8 -3 9
2 26 10 39 9 12 12 19 6 16 -6 -4 -13 -4 -16 0 -2 5 -2 2 -1 -4z"/>
<path d="M205 265 c8 -37 12 -42 26 -28 7 7 3 17 -11 34 l-21 24 6 -30z"/>
<path d="M70 214 c0 -8 5 -12 10 -9 6 4 8 11 5 16 -9 14 -15 11 -15 -7z"/>
<path d="M419 73 l-24 -28 28 24 c15 14 27 26 27 28 0 8 -8 1 -31 -24z"/>
<path d="M75 70 c10 -11 20 -20 23 -20 3 0 -3 9 -13 20 -10 11 -20 20 -23 20
-3 0 3 -9 13 -20z"/>
<path d="M124 36 c11 -9 24 -16 30 -16 12 0 7 5 -24 19 -24 11 -24 11 -6 -3z"/>
<path d="M360 35 c-14 -8 -20 -14 -14 -15 5 0 19 7 30 15 24 18 16 19 -16 0z"/>
<path d="M228 3 c12 -2 32 -2 45 0 12 2 2 4 -23 4 -25 0 -35 -2 -22 -4z"/>
</g>
</svg>
